# xmcd
#
# Track frame offsets: 
#        150
#        24236
#        52233
#        68086
#        85416
#        104867
#        138462
#        164663
#        177346
#        189617
#        212650
#        240446
#        279100
#        293827
#
# Disc length: 4212 seconds
#
# Revision: 0
# Processed by: cddbd v1.5.1PL0 Copyright (c) Steve Scherf et al.
# Submitted via: ExactAudioCopy v0.95a3
#
DISCID=d210720e
DTITLE=Lillian Boutté and Sammy Rimington - New Orleans Parade 2002
DYEAR=2002
DGENRE=Jazz
TTITLE0=Joe Avery's Place
TTITLE1=High Society
TTITLE2=Lahaina Cake-Glide
TTITLE3=Black Benny
TTITLE4=Lead Me Guide Me
TTITLE5=Sammy's Boogie
TTITLE6=Burgundy Street Blues
TTITLE7=Panorama Boogie
TTITLE8=The Storm Is Passing Over
TTITLE9=He Touched Me
TTITLE10=While We Dance At The Mardi Gras
TTITLE11=Ice Cream
TTITLE12=High Society Calypso
TTITLE13=What A Wonderful World
EXTD=
EXTT0=
EXTT1=
EXTT2=
EXTT3=
EXTT4=
EXTT5=
EXTT6=
EXTT7=
EXTT8=
EXTT9=
EXTT10=
EXTT11=
EXTT12=
EXTT13=
PLAYORDER=
